<?xml version="1.0" encoding="UTF-8"?>
<svg width="1281px" height="1632px" viewBox="0 0 1281 1632" version="1.1" xmlns="http://www.w3.org/2000/svg" xmlns:xlink="http://www.w3.org/1999/xlink">
    <g id="Assets" stroke="none" stroke-width="1" fill="none" fill-rule="evenodd">
        <polygon id="Line-3" fill="#B1B1BC" fill-rule="nonzero" points="-10 73 1292 73 1292 71 -10 71"/>
        <polygon id="Line-3-Copy-4" fill="#B1B1BC" fill-rule="nonzero" points="-10 489 1292 489 1292 487 -10 487"/>
        <polygon id="Line-3-Copy-8" fill="#B1B1BC" fill-rule="nonzero" points="-10 1113 1292 1113 1292 1111 -10 1111"/>
        <polygon id="Line-3-Copy" fill="#B1B1BC" fill-rule="nonzero" points="-10 177 1292 177 1292 175 -10 175"/>
        <polygon id="Line-3-Copy-5" fill="#B1B1BC" fill-rule="nonzero" points="-10 593 1292 593 1292 591 -10 591"/>
        <polygon id="Line-3-Copy-9" fill="#B1B1BC" fill-rule="nonzero" points="-10 1217 1292 1217 1292 1215 -10 1215"/>
        <polygon id="Line-3-Copy-2" fill="#B1B1BC" fill-rule="nonzero" points="-10 281 1292 281 1292 279 -10 279"/>
        <polygon id="Line-3-Copy-10" fill="#B1B1BC" fill-rule="nonzero" points="-10 905 1292 905 1292 903 -10 903"/>
        <polygon id="Line-3-Copy-6" fill="#B1B1BC" fill-rule="nonzero" points="-10 697 1292 697 1292 695 -10 695"/>
        <polygon id="Line-3-Copy-11" fill="#B1B1BC" fill-rule="nonzero" points="-10 1321 1292 1321 1292 1319 -10 1319"/>
        <polygon id="Line-3-Copy-3" fill="#B1B1BC" fill-rule="nonzero" points="-10 385 1292 385 1292 383 -10 383"/>
        <polygon id="Line-3-Copy-12" fill="#B1B1BC" fill-rule="nonzero" points="-10 1009 1292 1009 1292 1007 -10 1007"/>
        <polygon id="Line-3-Copy-7" fill="#B1B1BC" fill-rule="nonzero" points="-10 801 1292 801 1292 799 -10 799"/>
        <polygon id="Line-3-Copy-13" fill="#B1B1BC" fill-rule="nonzero" points="-10 1425 1292 1425 1292 1423 -10 1423"/>
        <polygon id="Line-3-Copy-14" fill="#B1B1BC" fill-rule="nonzero" points="-10 1529 1292 1529 1292 1527 -10 1527"/>
        <polygon id="Line-4" fill="#B1B1BC" fill-rule="nonzero" points="15 -10 15 1645 17 1645 17 -10"/>
        <polygon id="Line-4-Copy" fill="#B1B1BC" fill-rule="nonzero" points="119 -10 119 1645 121 1645 121 -10"/>
        <polygon id="Line-4-Copy-2" fill="#B1B1BC" fill-rule="nonzero" points="223 -32.9056286 223 1645 225 1645 225 -32.9056286"/>
        <polygon id="Line-4-Copy-3" fill="#B1B1BC" fill-rule="nonzero" points="327 -10 327 1645 329 1645 329 -10"/>
        <polygon id="Line-4-Copy-4" fill="#B1B1BC" fill-rule="nonzero" points="431 -10 431 1645 433 1645 433 -10"/>
        <polygon id="Line-4-Copy-5" fill="#B1B1BC" fill-rule="nonzero" points="535 -10 535 1645 537 1645 537 -10"/>
        <polygon id="Line-4-Copy-6" fill="#B1B1BC" fill-rule="nonzero" points="639 -10 639 1645 641 1645 641 -10"/>
        <polygon id="Line-4-Copy-7" fill="#B1B1BC" fill-rule="nonzero" points="743 -10 743 1645 745 1645 745 -10"/>
        <polygon id="Line-4-Copy-8" fill="#B1B1BC" fill-rule="nonzero" points="847 -10 847 1645 849 1645 849 -10"/>
        <polygon id="Line-4-Copy-9" fill="#B1B1BC" fill-rule="nonzero" points="951 -10 951 1645 953 1645 953 -10"/>
        <polygon id="Line-4-Copy-10" fill="#B1B1BC" fill-rule="nonzero" points="1055 -10 1055 1645 1057 1645 1057 -10"/>
        <polygon id="Line-4-Copy-11" fill="#B1B1BC" fill-rule="nonzero" points="1159 -10 1159 1645 1161 1645 1161 -10"/>
        <polygon id="Line-4-Copy-12" fill="#B1B1BC" fill-rule="nonzero" points="1263 -10 1263 1645 1265 1645 1265 -10"/>
        <path d="M640,593 C755.427513,593 849,499.427513 849,384 C849,268.572487 755.427513,175 640,175 C524.572487,175 431,268.572487 431,384 C431,499.427513 524.572487,593 640,593 Z M640,591 C525.677057,591 433,498.322943 433,384 C433,269.677057 525.677057,177 640,177 C754.322943,177 847,269.677057 847,384 C847,498.322943 754.322943,591 640,591 Z" id="Oval" fill="#B1B1BC" fill-rule="nonzero"/>
        <path d="M640,801.002398 C870.302741,801.002398 1057,614.305139 1057,384.002398 C1057,153.699657 870.302741,-32.9976019 640,-32.9976019 C409.697259,-32.9976019 223,153.699657 223,384.002398 C223,614.305139 409.697259,801.002398 640,801.002398 Z M640,799.002398 C410.801829,799.002398 225,613.200569 225,384.002398 C225,154.804227 410.801829,-30.9976019 640,-30.9976019 C869.198171,-30.9976019 1055,154.804227 1055,384.002398 C1055,613.200569 869.198171,799.002398 640,799.002398 Z" id="Oval-Copy" fill="#B1B1BC" fill-rule="nonzero"/>
        <path d="M640,1009 C985.177969,1009 1265,729.177969 1265,384 C1265,38.8220314 985.177969,-241 640,-241 C294.822031,-241 15,38.8220314 15,384 C15,729.177969 294.822031,1009 640,1009 Z M640,1007 C295.926601,1007 17,728.073399 17,384 C17,39.9266009 295.926601,-239 640,-239 C984.073399,-239 1263,39.9266009 1263,384 C1263,728.073399 984.073399,1007 640,1007 Z" id="Oval-Copy-2" fill="#B1B1BC" fill-rule="nonzero"/>
        <polygon id="Line-5" fill="#B1B1BC" fill-rule="nonzero" points="221.381773 -32.7959867 1055.38796 801.2102 1056.80217 799.795987 222.795987 -34.2102002"/>
        <polygon id="Line-6" fill="#B1B1BC" fill-rule="nonzero" points="225.045987 800.870625 1057.36823 -31.4516153 1055.95401 -32.8658288 223.631773 799.456411"/>
    </g>
</svg>